<svg xmlns="http://www.w3.org/2000/svg" viewBox="0 0 128 128" width="128" height="128">
  <rect width="128" height="128" rx="24" fill="#f8fafc"/>
  <rect x="16" y="16" width="96" height="96" rx="24" fill="url(#brandLight)" opacity="0.12"/>
  <path d="M24 84V36h16c10 0 18 6 18 16c0 6-3 11-8 14c6 2 10 7 10 14c0 11-9 20-22 20H24zm14-29h3c6 0 10-4 10-9s-4-8-10-8h-3v17zm0 18h5c7 0 11-4 11-10c0-5-4-9-11-9h-5v19z" fill="#0f172a"/>
  <defs>
    <linearGradient id="brandLight" x1="0%" y1="0%" x2="100%" y2="100%">
      <stop offset="0%" stop-color="#76b900"/>
      <stop offset="100%" stop-color="#00d4aa"/>
    </linearGradient>
  </defs>
</svg>
